<?xml version="1.0" encoding="UTF-8" standalone="no"?>
<svg
   viewBox="0 0 512 512"
   version="1.1"
   id="svg1"
   sodipodi:docname="tr-movie-player.svg"
   inkscape:version="1.4.2 (f4327f4, 2025-05-13)"
   xmlns:inkscape="http://www.inkscape.org/namespaces/inkscape"
   xmlns:sodipodi="http://sodipodi.sourceforge.net/DTD/sodipodi-0.dtd"
   xmlns="http://www.w3.org/2000/svg"
   xmlns:svg="http://www.w3.org/2000/svg">
  <defs
     id="defs1" />
  <sodipodi:namedview
     id="namedview1"
     pagecolor="#ffffff"
     bordercolor="#000000"
     borderopacity="0.25"
     inkscape:showpageshadow="2"
     inkscape:pageopacity="0.0"
     inkscape:pagecheckerboard="0"
     inkscape:deskcolor="#d1d1d1"
     inkscape:zoom="1.5917969"
     inkscape:cx="256"
     inkscape:cy="256"
     inkscape:window-width="1920"
     inkscape:window-height="1017"
     inkscape:window-x="-8"
     inkscape:window-y="-8"
     inkscape:window-maximized="1"
     inkscape:current-layer="svg1" />
  <!--! Font Awesome Free 6.7.2 by @fontawesome - https://fontawesome.com License - https://fontawesome.com/license/free (Icons: CC BY 4.0, Fonts: SIL OFL 1.1, Code: MIT License) Copyright 2024 Fonticons, Inc. -->
  <path
     d="M -0.62822086,88.46135 C -0.62822086,53.16135 19.276687,32 54.576687,32 H 448 c 35.3,0 64.06849,28.700066 64,64 l -0.62822,323.76933 C 511.30329,455.06926 492.72314,479.88904 457.42331,480 L 57.717791,481.25644 C 22.417966,481.3674 -0.62822086,459.46687 -0.62822086,424.16687 Z M 36.692025,415.70552 c 13.646413,16.78095 38.90482,12.33539 64.333745,8.46135 C 117.61855,421.639 115.32314,386.78463 112,368 c -2.15055,-12.15638 -10.3411,-31.70552 -19.141104,-31.70552 0,0 -39.233265,-4.47453 -50.846626,8.16687 -16.110972,17.53715 -20.345176,52.76806 -5.320245,71.24417 z M 414.74356,344.46135 c -16.92737,3.07398 -20.60256,30.92631 -20.39755,47.41104 0.20501,16.48474 19.76933,42.97424 19.76933,42.97424 32.38237,21.99113 56.52899,6.88227 69.35951,-12.81964 13.56357,-20.82755 19.48645,-48.91657 -17.25645,-72.53987 -11.92746,-7.66859 -18.85166,-10.95008 -51.47484,-5.02577 z M 35.435583,230.57669 c -11.461764,15.46871 -10.815364,39.52208 0,57.75705 10.742163,18.11156 43.302516,26.37369 63.116564,17.25644 13.985053,-6.43508 20.848153,-26.40317 19.730063,-41.75705 -1.41377,-19.41416 -14.01056,-42.05789 -32.333744,-48.62822 -16.567111,-5.94064 -40.03483,1.23068 -50.512883,15.37178 z M 411.60245,213.32025 c -25.67553,15.68595 -19.22209,69.10784 -16,88.83435 1.93462,11.84422 63.2204,24.52372 84.47608,5.94847 18.23481,-15.93533 18.43567,-52.58895 4.65276,-72.50062 -14.50354,-20.95272 -51.38314,-35.5673 -73.12884,-22.2822 z M 20.986503,125.7816 c -2.161036,21.8276 14.27481,47.07556 34.218405,56.20613 18.518937,8.47834 46.908012,5.32026 60.269942,-10.05153 13.25721,-15.25134 12.57045,-43.66477 1.55092,-60.60368 C 105.23844,93.213373 78.196439,81.913598 57.089571,86.576687 39.742562,90.40912 22.736796,108.10272 20.986503,125.7816 Z M 407.20491,95.371779 c -19.69396,17.345801 -28.1235,57.164141 -11.9362,77.820861 15.94254,20.34437 58.3198,24.52832 77.2319,6.91043 21.06694,-19.62528 19.21146,-66.45448 -1.59018,-86.360739 -15.34711,-14.686515 -47.76484,-12.41058 -63.70552,1.629448 z m -256.62822,21.948471 1.25643,282.62085 c 0.22011,49.50918 207.62232,42.58533 206.44909,-6.91043 L 352,128 C 351.58056,110.30497 347.75083,86.106672 330.05153,85.948466 L 189.48712,84.692025 C 171.78782,84.533819 150.498,99.620417 150.57669,117.32025 Z"
     id="path1"
     sodipodi:nodetypes="sssssssssasasaaszsassasaaaaasaaaaaaaaaaaaaasssssss"
     style="fill:#ffc233;fill-opacity:1" />
  <path
     d="m 208.75379,129.65269 c -6.76141,-5.1321 -25.31033,-10.32709 -32.20881,-5.53335 -6.89843,4.79374 -8.05173,17.58657 -8.05173,27.3996 v 198.51691 c 0,9.81305 0.52507,20.72121 7.4235,25.51492 6.89848,4.79374 29.84495,1.42704 36.60636,-3.64867 l 120.89324,-98.00198 c 6.53295,-4.90653 12.39224,-19.93027 12.39224,-29.40493 0,-9.47467 -3.97463,-20.04446 -10.50758,-25.00736 z"
     style="stroke-width:0.507591;fill:#008080;fill-opacity:1"
     id="path1-8"
     sodipodi:nodetypes="cssssccscc" />
</svg>
